<mxfile host="app.diagrams.net" agent="Mozilla/5.0 (Macintosh; Intel Mac OS X 10_15_7) AppleWebKit/537.36 (KHTML, like Gecko) Chrome/129.0.0.0 Safari/537.36" version="24.7.17">
  <diagram name="第 1 页" id="co3uCJApPV4dkqmszSku">
    <mxGraphModel dx="1242" dy="1954" grid="1" gridSize="10" guides="1" tooltips="1" connect="1" arrows="1" fold="1" page="1" pageScale="1" pageWidth="827" pageHeight="1169" math="0" shadow="0">
      <root>
        <mxCell id="0" />
        <mxCell id="1" parent="0" />
        <mxCell id="Z9NHNM5eDo6izXRrwf1n-1" value="" style="rounded=0;orthogonalLoop=1;jettySize=auto;html=1;" edge="1" parent="1" source="Z9NHNM5eDo6izXRrwf1n-2">
          <mxGeometry relative="1" as="geometry">
            <mxPoint x="310" y="-540" as="targetPoint" />
          </mxGeometry>
        </mxCell>
        <mxCell id="Z9NHNM5eDo6izXRrwf1n-2" value="RS-APP" style="ellipse;whiteSpace=wrap;html=1;aspect=fixed;" vertex="1" parent="1">
          <mxGeometry x="230" y="-640" width="60" height="60" as="geometry" />
        </mxCell>
        <mxCell id="Z9NHNM5eDo6izXRrwf1n-3" style="rounded=0;orthogonalLoop=1;jettySize=auto;html=1;entryX=0.5;entryY=0;entryDx=0;entryDy=0;" edge="1" parent="1" source="Z9NHNM5eDo6izXRrwf1n-4" target="Z9NHNM5eDo6izXRrwf1n-7">
          <mxGeometry relative="1" as="geometry">
            <mxPoint x="315" y="-540" as="targetPoint" />
          </mxGeometry>
        </mxCell>
        <mxCell id="Z9NHNM5eDo6izXRrwf1n-4" value="RP-APP" style="ellipse;whiteSpace=wrap;html=1;aspect=fixed;" vertex="1" parent="1">
          <mxGeometry x="330" y="-640" width="60" height="60" as="geometry" />
        </mxCell>
        <mxCell id="Z9NHNM5eDo6izXRrwf1n-5" value="老城区" style="rounded=0;whiteSpace=wrap;html=1;" vertex="1" parent="1">
          <mxGeometry x="20" y="-1130" width="120" height="60" as="geometry" />
        </mxCell>
        <mxCell id="Z9NHNM5eDo6izXRrwf1n-6" style="edgeStyle=orthogonalEdgeStyle;rounded=0;orthogonalLoop=1;jettySize=auto;html=1;entryX=0.5;entryY=0;entryDx=0;entryDy=0;" edge="1" parent="1" source="Z9NHNM5eDo6izXRrwf1n-7" target="Z9NHNM5eDo6izXRrwf1n-8">
          <mxGeometry relative="1" as="geometry" />
        </mxCell>
        <mxCell id="Z9NHNM5eDo6izXRrwf1n-7" value="渠道网关" style="ellipse;whiteSpace=wrap;html=1;aspect=fixed;" vertex="1" parent="1">
          <mxGeometry x="280" y="-540" width="60" height="60" as="geometry" />
        </mxCell>
        <mxCell id="Z9NHNM5eDo6izXRrwf1n-8" value="渠道作业系统服务&lt;br&gt;crm-mobile" style="rounded=0;whiteSpace=wrap;html=1;align=center;verticalAlign=top;" vertex="1" parent="1">
          <mxGeometry x="195" y="-430" width="230" height="250" as="geometry" />
        </mxCell>
        <mxCell id="Z9NHNM5eDo6izXRrwf1n-9" value="售后单据" style="rounded=1;whiteSpace=wrap;html=1;" vertex="1" parent="1">
          <mxGeometry x="340" y="-390" width="60" height="40" as="geometry" />
        </mxCell>
        <mxCell id="Z9NHNM5eDo6izXRrwf1n-10" value="客满服务&lt;div&gt;&lt;br&gt;&lt;/div&gt;" style="rounded=0;whiteSpace=wrap;html=1;verticalAlign=top;" vertex="1" parent="1">
          <mxGeometry x="620" y="-407.5" width="300" height="67.5" as="geometry" />
        </mxCell>
        <mxCell id="Z9NHNM5eDo6izXRrwf1n-11" value="AS" style="rounded=1;whiteSpace=wrap;html=1;" vertex="1" parent="1">
          <mxGeometry x="640" y="-380" width="60" height="30" as="geometry" />
        </mxCell>
        <mxCell id="Z9NHNM5eDo6izXRrwf1n-12" value="CS" style="rounded=1;whiteSpace=wrap;html=1;" vertex="1" parent="1">
          <mxGeometry x="720" y="-380" width="60" height="30" as="geometry" />
        </mxCell>
        <mxCell id="Z9NHNM5eDo6izXRrwf1n-13" value="work-order-center" style="rounded=1;whiteSpace=wrap;html=1;" vertex="1" parent="1">
          <mxGeometry x="800" y="-380" width="100" height="30" as="geometry" />
        </mxCell>
        <mxCell id="Z9NHNM5eDo6izXRrwf1n-14" value="购物车&lt;br&gt;cart" style="rounded=1;whiteSpace=wrap;html=1;" vertex="1" parent="1">
          <mxGeometry x="620" y="-310" width="60" height="30" as="geometry" />
        </mxCell>
        <mxCell id="Z9NHNM5eDo6izXRrwf1n-15" value="定金购&lt;br&gt;deposit-order" style="rounded=1;whiteSpace=wrap;html=1;" vertex="1" parent="1">
          <mxGeometry x="700" y="-310" width="90" height="30" as="geometry" />
        </mxCell>
        <mxCell id="Z9NHNM5eDo6izXRrwf1n-16" value="商品查询&amp;amp;帮他加购&lt;br&gt;goods-gateway" style="rounded=1;whiteSpace=wrap;html=1;" vertex="1" parent="1">
          <mxGeometry x="810" y="-310" width="90" height="30" as="geometry" />
        </mxCell>
      </root>
    </mxGraphModel>
  </diagram>
</mxfile>
